# xmcd
#
# Track frame offsets: 
#        150
#        11992
#        26210
#        42496
#        55651
#        69565
#        86834
#        98644
#
# Disc length: 1473 seconds
#
# Revision: 0
# Processed by: cddbd v1.5.2PL0 Copyright (c) Steve Scherf et al.
# Submitted via: ExactAudioCopy v0.99pb4
#
DISCID=6905bf08
DTITLE=Tennessee Ernie Ford - Country Favorites
DYEAR=1985
DGENRE=Classic Country
TTITLE0=Sixteen Tons
TTITLE1=Funny How Time Slips Away
TTITLE2=Little Green Apples
TTITLE3=Release Me
TTITLE4=Mule Train
TTITLE5=Green Green Grass of Home
TTITLE6=Make the World Go Away
TTITLE7=It's Such a Pretty World Today
EXTD=
EXTT0=
EXTT1=
EXTT2=
EXTT3=
EXTT4=
EXTT5=
EXTT6=
EXTT7=
PLAYORDER=
